<?xml version="1.0" standalone="no"?><!DOCTYPE svg PUBLIC "-//W3C//DTD SVG 1.1//EN" "http://www.w3.org/Graphics/SVG/1.1/DTD/svg11.dtd"><svg t="1705080657370" class="icon" viewBox="0 0 1400 1000" version="1.1" xmlns="http://www.w3.org/2000/svg" p-id="4296" xmlns:xlink="http://www.w3.org/1999/xlink" width="160" height="160"><path d="M1348.608 123.904l-66.56-66.048c-9.216-9.216-24.064-9.216-33.28 0l-48.128 48.64L1300.48 205.312l48.128-48.64c4.608-4.608 6.656-10.24 6.656-16.384 0-6.144-2.048-12.288-6.656-16.384z m-568.32 404.48l-46.08 114.688c-7.68 18.944 11.264 37.888 30.72 30.208l115.712-45.568 370.176-372.224-100.352-98.816-370.176 371.712z m0 0" fill="" p-id="4297"></path><path d="M1054.72 721.92v-201.216l-47.616 47.616v153.6c-22.016 7.68-39.424 25.088-47.104 47.104L438.784 872.448c-7.68-22.016-25.088-39.424-47.104-47.104L288.256 213.504c22.016-7.68 39.424-25.088 47.104-47.104l548.864 181.248 35.328-35.84L335.36 118.784c-11.264-33.28-44.032-54.784-78.848-50.688-34.816 3.584-62.464 31.232-66.56 66.56-3.584 34.816 17.408 68.096 50.688 78.848l103.424 611.84c-33.28 11.264-54.784 44.032-50.688 78.848 3.584 34.816 31.232 62.464 66.56 66.56 34.816 3.584 68.096-17.408 78.848-50.688l521.216-103.424c11.776 34.304 46.592 55.296 82.944 49.664 35.84-5.632 62.464-36.864 62.976-73.216-0.512-33.28-22.016-61.44-51.2-71.168zM236.032 142.848c0-17.92 14.336-32.256 32.256-32.256s32.256 14.336 32.256 32.256-14.336 32.256-32.256 32.256-32.256-14.336-32.256-32.256zM384 923.648c-10.24 5.632-22.528 5.632-32.256 0-9.728-5.632-16.384-16.384-16.384-28.16 0-17.92 14.336-32.256 32.256-32.256s32.256 14.336 32.256 32.256c0.512 11.776-5.632 22.528-15.872 28.16z m666.624-107.52c-9.728 5.632-22.528 5.632-32.256 0-10.24-5.632-16.384-16.384-16.384-28.16s6.144-22.016 16.384-28.16c9.728-5.632 22.528-5.632 32.256 0 10.24 5.632 16.384 16.384 16.384 28.16s-6.144 22.528-16.384 28.16z" fill="" p-id="4298"></path><path d="M714.752 518.144L901.12 330.752 300.544 145.408c-1.536 16.384-15.36 29.184-32.256 29.184-2.56 0-5.12-0.512-7.168-1.024L379.392 865.28c12.288 4.608 20.992 16.384 20.992 30.208 0 2.56-0.512 5.12-1.024 7.168l604.16-105.984c-1.024-3.072-1.536-6.144-1.536-9.216 0-11.776 6.144-22.016 16.384-28.16 4.096-2.048 8.192-3.584 12.288-4.096l-4.096-207.36-139.264 140.288-199.68 78.848c-33.28 13.312-66.048-19.456-52.736-52.224l79.872-196.608z" fill="" p-id="4299"></path></svg>