<?xml version="1.0" standalone="no"?><!DOCTYPE svg PUBLIC "-//W3C//DTD SVG 1.1//EN" "http://www.w3.org/Graphics/SVG/1.1/DTD/svg11.dtd"><svg t="1705111289653" class="icon" viewBox="0 0 1024 1024" version="1.1" xmlns="http://www.w3.org/2000/svg" p-id="4379" xmlns:xlink="http://www.w3.org/1999/xlink" width="200" height="200"><path d="M274.24 410.432l440.864-257.92 87.232 340.224L671.84 365.504l-11.168 11.2c-118.336 118.4-173.76 226.56-164.608 324.8 9.28 99.168 82.56 179.52 217.28 241.056l13.312-29.12c-125.312-57.248-190.72-128.896-198.72-214.912-7.84-84.032 39.744-180.16 144.32-287.968l189.408 184.704-126.08-491.776-625.824 366.08 352.672-57.28c-90.688 86.88-150.176 163.2-178.464 229.44-32.16 75.2-44.896 170.88-38.56 287.136l31.936-1.728c-6.08-111.68 6.048-202.656 36.032-272.864 29.984-70.144 99.776-155.2 209.376-254.4l40.128-36.352-288.64 46.912z" p-id="4380"></path></svg>